<svg width="174" height="174" viewBox="0 0 174 174" fill="none" xmlns="http://www.w3.org/2000/svg">
<path d="M140.995 28.8135H61.9831C43.9694 28.8135 29.3664 43.4165 29.3664 61.4302V140.442C29.3664 158.456 43.9694 173.059 61.9831 173.059H140.995C159.009 173.059 173.612 158.456 173.612 140.442V61.4302C173.612 43.4165 159.009 28.8135 140.995 28.8135Z" fill="black"/>
<path d="M112.468 0.286133H33.456C15.4423 0.286133 0.839294 14.8891 0.839294 32.9028V111.915C0.839294 129.929 15.4423 144.532 33.456 144.532H112.468C130.482 144.532 145.085 129.929 145.085 111.915V32.9028C145.085 14.8891 130.482 0.286133 112.468 0.286133Z" fill="black"/>
<path d="M137.226 52.4946H64.6731C57.0633 52.4946 50.8944 58.6636 50.8944 66.2733V138.827C50.8944 146.436 57.0633 152.605 64.6731 152.605H137.226C144.836 152.605 151.005 146.436 151.005 138.827V66.2733C151.005 58.6636 144.836 52.4946 137.226 52.4946Z" fill="white"/>
<path d="M166.411 41.8959L132.082 7.56708C129.223 4.70847 124.589 4.70847 121.73 7.56708L117.62 11.6774C114.761 14.536 114.761 19.1707 117.62 22.0293L151.948 56.3582C154.807 59.2168 159.442 59.2168 162.3 56.3582L166.411 52.2478C169.269 49.3892 169.269 44.7545 166.411 41.8959Z" fill="black" stroke="black" stroke-width="1.07646" stroke-miterlimit="10"/>
<path d="M56.558 151.694L22.2292 117.365C19.3706 114.506 14.7358 114.506 11.8772 117.365L7.7669 121.475C4.90829 124.334 4.9083 128.969 7.76691 131.827L42.0957 166.156C44.9544 169.015 49.5891 169.015 52.4477 166.156L56.558 162.046C59.4166 159.187 59.4166 154.552 56.558 151.694Z" fill="black" stroke="black" stroke-width="1.07646" stroke-miterlimit="10"/>
<path d="M126.247 93.8299V81.7735C126.247 78.3288 123.448 75.6377 120.111 75.6377H80.8201C77.3754 75.6377 74.6843 78.4365 74.6843 81.7735V124.186C74.6843 127.631 77.4831 130.322 80.8201 130.322H120.111C123.556 130.322 126.247 127.523 126.247 124.186V114.175" fill="white"/>
<path d="M126.247 93.8299V81.7735C126.247 78.3288 123.448 75.6377 120.111 75.6377H80.8201C77.3754 75.6377 74.6843 78.4365 74.6843 81.7735V124.186C74.6843 127.631 77.4831 130.322 80.8201 130.322H120.111C123.556 130.322 126.247 127.523 126.247 124.186V114.175" stroke="black" stroke-width="17.2233" stroke-miterlimit="10"/>
</svg>
