<svg width="185" height="185" viewBox="0 0 185 185" fill="none" xmlns="http://www.w3.org/2000/svg">
<g filter="url(#filter0_d_3_8)">
<path d="M147.581 29.205H66.6243C48.1674 29.205 33.205 44.1673 33.205 62.6243V143.581C33.205 162.038 48.1674 177 66.6243 177H147.581C166.038 177 181 162.038 181 143.581V62.6243C181 44.1673 166.038 29.205 147.581 29.205Z" fill="black"/>
<path d="M118.376 0H37.4193C18.9623 0 4 14.9623 4 33.4193V114.376C4 132.833 18.9623 147.795 37.4193 147.795H118.376C136.833 147.795 151.795 132.833 151.795 114.376V33.4193C151.795 14.9623 136.833 0 118.376 0Z" fill="black"/>
<path d="M143.86 53.1H69.4596C61.656 53.1 55.33 59.426 55.33 67.2295V141.63C55.33 149.434 61.656 155.76 69.4596 155.76H143.86C151.664 155.76 157.99 149.434 157.99 141.63V67.2295C157.99 59.426 151.664 53.1 143.86 53.1Z" fill="white"/>
<path d="M61.0822 155.114L25.9132 119.945C22.9847 117.016 18.2365 117.016 15.308 119.945L11.097 124.156C8.16847 127.084 8.16847 131.833 11.097 134.761L46.266 169.93C49.1946 172.859 53.9427 172.859 56.8713 169.93L61.0822 165.719C64.0108 162.791 64.0108 158.043 61.0822 155.114Z" fill="black" stroke="black" stroke-width="1.34579" stroke-miterlimit="10"/>
<path d="M173.623 42.6281L138.454 7.45913C135.525 4.53056 130.777 4.53057 127.849 7.45914L123.638 11.6701C120.709 14.5986 120.709 19.3468 123.638 22.2753L158.807 57.4443C161.735 60.3729 166.483 60.3729 169.412 57.4443L173.623 53.2334C176.551 50.3048 176.551 45.5567 173.623 42.6281Z" fill="black" stroke="black" stroke-width="1.34579" stroke-miterlimit="10"/>
<path d="M132.477 95.8339V83.4825C132.477 79.9535 129.609 77.1965 126.191 77.1965H85.9382C82.4092 77.1965 79.6522 80.0638 79.6522 83.4825V126.933C79.6522 130.462 82.5195 133.219 85.9382 133.219H126.191C129.72 133.219 132.477 130.352 132.477 126.933V116.677" fill="white"/>
<path d="M132.477 95.8339V83.4825C132.477 79.9535 129.609 77.1965 126.191 77.1965H85.9382C82.4092 77.1965 79.6522 80.0638 79.6522 83.4825V126.933C79.6522 130.462 82.5195 133.219 85.9382 133.219H126.191C129.72 133.219 132.477 130.352 132.477 126.933V116.677" stroke="black" stroke-width="21.5327" stroke-miterlimit="10"/>
</g>
<defs>
<filter id="filter0_d_3_8" x="0" y="0" width="185" height="185" filterUnits="userSpaceOnUse" color-interpolation-filters="sRGB">
<feFlood flood-opacity="0" result="BackgroundImageFix"/>
<feColorMatrix in="SourceAlpha" type="matrix" values="0 0 0 0 0 0 0 0 0 0 0 0 0 0 0 0 0 0 127 0" result="hardAlpha"/>
<feOffset dy="4"/>
<feGaussianBlur stdDeviation="2"/>
<feComposite in2="hardAlpha" operator="out"/>
<feColorMatrix type="matrix" values="0 0 0 0 0 0 0 0 0 0 0 0 0 0 0 0 0 0 0.25 0"/>
<feBlend mode="normal" in2="BackgroundImageFix" result="effect1_dropShadow_3_8"/>
<feBlend mode="normal" in="SourceGraphic" in2="effect1_dropShadow_3_8" result="shape"/>
</filter>
</defs>
</svg>
